<svg xmlns="http://www.w3.org/2000/svg" width="310" height="257" viewBox="0 0 310 257" fill="none">
  <path d="M85.5415 181.727C86.7327 183.003 88.1405 183.99 89.7649 184.675C91.3893 185.361 93.1581 185.722 95.0834 185.722C97.0086 185.722 98.7894 185.373 100.402 184.675C102.026 183.978 103.434 182.991 104.625 181.727C105.817 180.452 106.743 178.972 107.405 177.275C108.055 175.579 108.391 173.726 108.391 171.716C108.391 169.707 108.067 167.854 107.405 166.157C106.743 164.461 105.829 162.968 104.625 161.705C103.422 160.43 102.002 159.443 100.342 158.757C98.6811 158.059 96.8883 157.71 94.963 157.71C93.0378 157.71 91.3773 158.059 89.7529 158.757C88.1285 159.455 86.7207 160.442 85.5294 161.705C84.3262 162.981 83.3876 164.461 82.6897 166.157C81.9918 167.854 81.6429 169.707 81.6429 171.716C81.6429 173.726 81.9918 175.579 82.6897 177.275C83.3876 178.972 84.3262 180.464 85.5294 181.727H85.5415ZM94.2772 167.89H95.9016C98.9098 167.89 100.414 169.165 100.414 171.704C100.414 174.243 98.9098 175.519 95.9016 175.519H94.2772C91.269 175.519 89.7649 174.243 89.7649 171.704C89.7649 169.165 91.269 167.89 94.2772 167.89Z" fill="white"/>
  <path d="M142.889 204.253C142.889 202.327 142.769 200.089 142.54 197.538C142.312 194.987 141.999 192.677 141.614 190.595L139.881 179.826L127.271 181.908L129.244 192.677C129.786 195.613 130.147 197.984 130.339 199.8C130.532 201.617 130.628 203.097 130.628 204.253C130.628 205.564 130.147 206.671 129.184 207.549C128.221 208.44 126.681 209.174 124.551 209.751C122.434 210.329 119.63 210.738 116.165 210.967C112.699 211.195 108.404 211.316 103.314 211.316H87.1057C82.0881 211.316 77.8887 211.099 74.4955 210.678C71.1023 210.257 68.3588 209.583 66.2772 208.657C64.1955 207.73 62.6915 206.515 61.7649 205.011C60.8384 203.507 60.3812 201.641 60.3812 199.391C60.3812 197.466 60.7422 195.288 61.4762 192.858C62.2101 190.427 63.2329 187.9 64.5445 185.277L53.4383 182.04C51.9704 185.674 50.8393 189.332 50.0211 193.038C49.2028 196.744 48.8058 200.137 48.8058 203.218C48.8058 208.235 49.5999 212.435 51.1762 215.84C52.7525 219.233 55.3275 221.989 58.8771 224.118C62.4267 226.236 67.0713 227.764 72.823 228.691C78.5746 229.617 85.6498 230.075 94.0606 230.075C103.855 230.075 111.905 229.69 118.198 228.92C124.491 228.149 129.461 226.802 133.131 224.865C136.789 222.939 139.339 220.316 140.771 216.995C142.203 213.674 142.913 209.439 142.913 204.265L142.889 204.253Z" fill="white"/>
  <path d="M96.2385 237.944H93.9282C91.9188 237.944 90.2823 238.558 89.0069 239.797C87.7314 241.036 87.0937 242.998 87.0937 245.705C87.0937 248.412 87.7314 250.374 89.0069 251.613C90.2823 252.852 91.9188 253.466 93.9282 253.466H96.2385C98.248 253.466 99.8844 252.852 101.16 251.613C102.435 250.374 103.073 248.412 103.073 245.705C103.073 242.998 102.435 241.036 101.16 239.797C99.8844 238.558 98.248 237.944 96.2385 237.944Z" fill="white"/>
  <path d="M180.154 168.131L176.797 160.598L148.099 173.918L151.456 181.318L180.154 168.131Z" fill="white"/>
  <path d="M207.817 167.433C210.212 167.433 212.005 166.602 213.196 164.942C214.387 163.281 215.181 160.682 215.566 157.133H216.144C216.529 158.986 217.383 160.43 218.695 161.476C220.006 162.523 221.667 163.041 223.676 163.041C226.997 163.041 229.584 161.922 231.425 159.684C233.279 157.446 234.205 154.317 234.205 150.31C234.205 148.842 234.049 147.206 233.748 145.389C233.435 143.572 232.978 141.779 232.364 140.01L224.495 142.212C225.108 143.752 225.578 145.22 225.878 146.616C226.191 148 226.336 149.239 226.336 150.322C226.336 152.175 225.445 153.102 223.676 153.102C222.052 153.102 221.246 152.175 221.246 150.322V145.232H213.376V153.451C213.376 156.158 212.45 157.506 210.597 157.506C209.213 157.506 208.515 156.736 208.515 155.195V148.71H200.646V157.626C200.646 160.791 201.284 163.221 202.559 164.918C203.835 166.614 205.591 167.469 207.829 167.469L207.817 167.433Z" fill="white"/>
  <path d="M225.65 238.052H223.34C221.33 238.052 219.694 238.666 218.418 239.905C217.143 241.133 216.505 243.106 216.505 245.813C216.505 248.521 217.143 250.482 218.418 251.721C219.694 252.949 221.33 253.574 223.34 253.574H225.65C227.659 253.574 229.296 252.961 230.571 251.721C231.847 250.482 232.484 248.521 232.484 245.813C232.484 243.106 231.847 241.145 230.571 239.905C229.296 238.666 227.659 238.052 225.65 238.052Z" fill="white"/>
  <path d="M248.331 187.479C244.782 187.022 241.461 186.36 238.38 185.506L216.048 179.718C214.195 179.261 212.655 178.864 211.415 178.563C210.176 178.25 209.117 178.021 208.227 177.865C207.336 177.709 206.566 177.6 205.916 177.516C205.254 177.444 204.629 177.396 204.003 177.396C199.142 177.396 195.532 178.671 193.186 181.21C190.827 183.761 189.66 187.768 189.66 193.243V202.159H202.968V193.483L220.452 197.767L238.97 201.702V202.279L234.686 204.361C231.365 205.985 228.249 207.261 225.313 208.175C222.377 209.102 219.369 209.8 216.288 210.257C213.196 210.714 209.935 211.003 206.506 211.123C203.077 211.244 199.19 211.292 194.87 211.292H176.232C176.075 209.908 175.907 208.44 175.714 206.888C175.522 205.348 175.269 203.723 174.968 202.027L173.236 191.257L160.613 193.231L163.044 208.62C163.429 210.858 163.742 212.964 163.97 214.926C164.199 216.887 164.319 218.764 164.319 220.545C164.391 227.187 162.791 231.928 159.518 234.779C156.233 237.631 151.083 239.063 144.068 239.063H139.436V256.426H144.177C153.358 256.426 160.673 253.935 166.112 248.966C171.551 243.996 174.932 237.222 176.244 228.655H194.882C198.588 228.655 202.138 228.486 205.531 228.137C208.924 227.788 212.438 227.054 216.06 225.935C219.682 224.816 223.52 223.24 227.575 221.195C231.63 219.149 236.202 216.394 241.292 212.916L252.17 205.504H261.194V188.141H258.884C255.407 188.141 251.905 187.912 248.355 187.443L248.331 187.479Z" fill="white"/>
  <path d="M131.891 26.7366H134.202C136.211 26.7366 137.847 26.1229 139.123 24.8835C140.398 23.6442 141.036 21.6829 141.036 18.9755C141.036 16.2682 140.398 14.3068 139.123 13.0675C137.847 11.8401 136.211 11.2144 134.202 11.2144H131.891C129.882 11.2144 128.245 11.8281 126.97 13.0675C125.694 14.3068 125.057 16.2682 125.057 18.9755C125.057 21.6829 125.694 23.6442 126.97 24.8835C128.245 26.1229 129.882 26.7366 131.891 26.7366Z" fill="white"/>
  <path d="M136.115 29.9734C134.839 31.2127 134.202 33.174 134.202 35.8814C134.202 38.5887 134.839 40.5501 136.115 41.7894C137.39 43.0288 139.027 43.6425 141.036 43.6425H143.346C145.356 43.6425 146.992 43.0288 148.268 41.7894C149.543 40.5621 150.181 38.5887 150.181 35.8814C150.181 33.174 149.543 31.2127 148.268 29.9734C146.992 28.734 145.356 28.1203 143.346 28.1203H141.036C139.027 28.1203 137.39 28.734 136.115 29.9734Z" fill="white"/>
  <path d="M122.746 43.6304H125.057C127.066 43.6304 128.703 43.0168 129.978 41.7774C131.254 40.5501 131.891 38.5767 131.891 35.8694C131.891 33.162 131.254 31.2007 129.978 29.9613C128.703 28.722 127.066 28.1083 125.057 28.1083H122.746C120.737 28.1083 119.101 28.722 117.825 29.9613C116.55 31.2007 115.912 33.162 115.912 35.8694C115.912 38.5767 116.55 40.538 117.825 41.7774C119.101 43.0168 120.737 43.6304 122.746 43.6304Z" fill="white"/>
  <path d="M163.489 49.6588L162.563 43.7508L149.94 45.8324L150.987 51.7404C151.372 54.1349 151.685 56.1564 151.914 57.8169C152.142 59.4774 152.263 60.8492 152.263 61.9201C152.263 64.5432 151.757 66.4564 150.758 67.6476C149.76 68.8509 148.448 69.4405 146.824 69.4405H145.669C143.743 69.4405 142.215 68.7065 141.096 67.2385C139.977 65.7705 139.424 63.4241 139.424 60.1753V52.8835H126.693V60.1753C126.693 63.8092 125.959 66.324 124.491 67.7559C123.023 69.1878 120.629 69.8977 117.32 69.8977C115.31 69.8977 113.349 69.6089 111.412 69.0314C109.486 68.4538 107.597 67.7439 105.744 66.8896L109.799 58.4426L98.3442 52.8835L93.832 62.257C92.749 64.4951 91.3051 66.0593 89.4882 66.9497C87.6713 67.8401 84.9158 68.2853 81.2097 68.2853H68.2385V0H54.3528V73.7241C54.3528 77.5866 54.064 80.8474 53.4865 83.5067C52.9089 86.1659 51.9824 88.3318 50.7069 89.9923C49.4315 91.6528 47.7589 92.844 45.6773 93.578C43.5956 94.312 41.0447 94.673 38.0365 94.673H28.7714C23.6816 94.673 19.6867 93.3373 16.7868 90.6781C13.899 88.0189 12.4431 84.2527 12.4431 79.3915C12.4431 76.9248 12.8883 73.9888 13.7787 70.5956C14.6691 67.2024 15.8844 63.8453 17.4246 60.5243L6.31843 57.2875C4.62183 61.3786 3.2862 65.6021 2.32359 69.9579C1.36098 74.3137 0.879669 78.2364 0.879669 81.7018C0.879669 91.8092 3.62312 99.6184 9.09798 105.141C14.5728 110.652 22.6829 113.42 33.404 113.42C43.5114 113.42 51.3086 111.158 56.7834 106.645C62.2583 102.133 65.7718 95.1302 67.312 85.6364H77.612C82.2445 85.6364 86.0829 85.2875 89.1272 84.5896C92.1715 83.8917 94.8908 82.3876 97.2853 80.0774L99.716 81.4611C103.266 83.5428 106.141 84.9867 108.343 85.8049C110.545 86.6111 112.759 87.0202 114.997 87.0202C118.475 87.0202 121.266 85.7327 123.384 83.1457C125.502 80.5587 126.874 76.4916 127.499 70.9325H128.197C129.196 76.4074 131.097 80.4624 133.865 83.0855C136.632 85.7086 140.771 87.0202 146.246 87.0202C152.491 87.0202 157.112 84.9987 160.084 80.9437C163.056 76.8887 164.536 70.5475 164.536 61.908C164.536 59.8986 164.464 57.9132 164.307 55.9519C164.151 53.9785 163.886 51.8848 163.501 49.6468L163.489 49.6588Z" fill="white"/>
  <path d="M308.868 55.9639C308.711 53.9905 308.447 51.8969 308.061 49.6588L307.135 43.7508L294.513 45.8324L295.56 51.7404C295.945 54.1349 296.257 56.1564 296.486 57.8169C296.715 59.4774 296.835 60.8492 296.835 61.9201C296.835 64.5432 296.33 66.4564 295.331 67.6476C294.332 68.8509 293.021 69.4405 291.396 69.4405H290.241C288.316 69.4405 286.788 68.7065 285.669 67.2385C284.55 65.7705 283.996 63.4241 283.996 60.1753V52.8835H271.266V60.1753C271.266 63.8092 270.532 66.324 269.064 67.7559C267.596 69.1878 265.201 69.8977 261.892 69.8977C259.883 69.8977 257.921 69.6089 255.984 69.0314C254.059 68.4538 252.17 67.7439 250.317 66.8896L254.372 58.4426L242.917 52.8835L238.404 62.257C237.321 64.4951 235.878 66.0593 234.061 66.9497C232.244 67.8401 229.488 68.2853 225.782 68.2853H219.766C219.381 58.3343 217.143 50.5733 213.052 45.0262C208.96 39.4671 203.401 36.6876 196.386 36.6876C192.993 36.6876 189.853 37.3975 186.953 38.8294C184.053 40.2613 181.55 42.2226 179.432 44.7374C177.315 47.2402 175.654 50.2123 174.451 53.6536C173.248 57.0829 172.658 60.8131 172.658 64.8199C172.658 71.3777 174.415 76.4916 177.928 80.1616C181.442 83.8315 186.315 85.6605 192.572 85.6605H206C204.147 88.8973 201.007 91.4482 196.567 93.3012C192.127 95.1543 186.243 96.0808 178.915 96.0808H171.503V113.444H180.07C190.647 113.444 199.106 111.037 205.471 106.212C211.836 101.387 216.096 94.5406 218.262 85.6725H222.196C226.829 85.6725 230.667 85.3236 233.712 84.6257C236.756 83.9278 239.475 82.4237 241.87 80.1135L244.3 81.4972C247.85 83.5789 250.726 85.0228 252.928 85.841C255.13 86.6472 257.344 87.0563 259.582 87.0563C263.059 87.0563 265.851 85.7688 267.969 83.1818C270.086 80.5948 271.458 76.5277 272.084 70.9686H272.782C273.78 76.4435 275.682 80.4985 278.449 83.1216C281.217 85.7447 285.356 87.0563 290.831 87.0563C297.076 87.0563 301.696 85.0348 304.668 80.9798C307.64 76.9248 309.12 70.5836 309.12 61.9441C309.12 59.9347 309.048 57.9493 308.892 55.988L308.868 55.9639ZM193.703 68.2853C190.767 68.2853 188.457 67.8401 186.76 66.9497C185.064 66.0593 184.209 64.5793 184.209 62.4976C184.209 60.0309 185.232 58.0095 187.278 56.4211C189.323 54.8449 191.85 54.0507 194.858 54.0507C198.721 54.0507 201.897 55.3262 204.412 57.8651C206.915 60.416 208.178 63.7731 208.178 67.9364V68.2853H193.703Z" fill="white"/>
</svg>