<svg xmlns="http://www.w3.org/2000/svg" width="412" height="90" viewBox="0 0 412 90" fill="none">
  <path d="M41.1249 89.9865C35.4887 89.9865 30.1928 89.2663 25.2519 87.8394C20.311 86.4125 15.947 83.9935 12.1747 80.6097C8.40249 77.2259 5.42907 72.7005 3.25448 67.0472C1.07989 61.394 -3.05176e-05 54.3409 -3.05176e-05 45.8882C-3.05176e-05 37.4354 1.15381 29.9883 3.44675 24.2535C5.73969 18.5187 8.99419 13.9797 13.2102 10.6231C17.4115 7.28005 22.3228 4.92904 27.9146 3.57008C33.5064 2.21112 39.6456 1.53164 46.3321 1.53164C53.5363 1.53164 59.8382 2.04804 65.2673 3.08085C70.6816 4.11367 75.2674 5.78519 78.9953 8.09543C82.7232 10.4057 85.5635 13.4497 87.5162 17.2412C89.4689 21.0328 90.534 25.6668 90.7115 31.1706H64.0395C64.0395 28.2217 63.6105 25.7891 62.7377 23.873C61.8649 21.9569 60.6518 20.4484 59.0986 19.3341C57.5305 18.2197 55.6666 17.4451 53.5068 17.0102C51.3322 16.5754 48.8617 16.3579 46.0954 16.3579C42.545 16.3579 39.4533 16.8336 36.8645 17.7984C34.2609 18.7497 32.0863 20.3261 30.3555 22.514C28.6247 24.702 27.3673 27.6917 26.5832 31.4832C25.7992 35.2747 25.4146 39.9903 25.4146 45.6436C25.4146 51.2969 25.8879 56.1484 26.8495 59.9263C27.7963 63.7178 29.2312 66.6939 31.1395 68.8954C33.0478 71.0834 35.4739 72.6598 38.4177 73.611C41.3616 74.5623 44.838 75.0515 48.8321 75.0515C56.8056 75.0515 62.5157 73.5159 65.9477 70.4446C69.3798 67.3734 71.081 62.8209 71.081 56.7599V55.2107H47.3972V40.8736H94.75V88.2063H74.8384L75.3562 74.9428L74.8384 74.8205C73.3591 77.7695 71.007 80.3923 67.7525 82.7025C64.498 85.0127 60.5927 86.8066 56.0364 88.084C51.4801 89.3614 46.5096 90.0001 41.1397 90.0001L41.1249 89.9865Z" fill="white"/>
  <path d="M127.384 88.2064H104.868V26.5231H126.984L126.333 38.713L126.851 38.8353C129.632 34.3779 132.901 31.0076 136.674 28.7382C140.446 26.4687 144.721 25.3272 149.485 25.3272C155.639 25.3272 160.269 26.9443 163.346 30.1651C166.423 33.3994 167.961 37.8296 167.961 43.4965V56.529H147.798V49.476C147.798 46.3639 147.118 44.1216 145.786 42.7219C144.44 41.3222 141.984 40.6291 138.434 40.6291C135.742 40.6291 133.582 41.1047 131.925 42.0696C130.283 43.0209 129.1 44.4206 128.404 46.2552C127.709 48.0898 127.369 50.2777 127.369 52.8326V88.2064H127.384Z" fill="white"/>
  <path d="M224.841 26.5236H247.474V88.1933H225.092L225.743 76.0034L225.359 75.8811C222.415 80.3521 218.465 83.7087 213.524 85.9782C208.583 88.2477 203.11 89.3892 197.133 89.3892C189.766 89.3892 184.115 87.5954 180.225 84.0077C176.334 80.42 174.367 75.718 174.367 69.9017V26.51H196.867V62.4817C196.867 64.955 197.237 67.0479 197.977 68.7601C198.716 70.4724 200.018 71.7906 201.882 72.7011C203.746 73.6116 206.364 74.0737 209.752 74.0737C213.302 74.0737 216.187 73.6116 218.406 72.7011C220.625 71.7906 222.237 70.4453 223.288 68.6922C224.323 66.9391 224.856 64.8735 224.856 62.4817V26.51L224.841 26.5236Z" fill="white"/>
  <path d="M281.173 88.2063H258.658V0.947266H281.425V26.5229C281.425 27.8819 281.395 29.2681 281.365 30.7086C281.321 32.1491 281.277 33.5624 281.232 34.9485C281.188 36.3483 281.084 37.8023 280.907 39.3108L281.291 39.4331C283.895 35.2067 287.475 31.8093 292.031 29.2137C296.588 26.6317 301.854 25.3271 307.845 25.3271C313.659 25.2455 318.585 26.3463 322.609 28.6158C326.647 30.8852 329.724 34.3913 331.84 39.1341C333.97 43.8769 335.035 49.9515 335.035 57.3578C335.035 63.5683 334.236 68.7595 332.624 72.8908C331.011 77.0356 328.807 80.3243 325.981 82.7568C323.156 85.1894 319.872 86.9017 316.1 87.8937C312.327 88.8857 308.185 89.3886 303.673 89.3886C300.197 89.3886 297.017 89.0352 294.117 88.315C291.218 87.5947 288.658 86.5076 286.439 85.0263C284.22 83.5586 282.431 81.7784 281.04 79.7128L281.173 88.1927V88.2063ZM296.395 76.492C299.783 76.492 302.667 75.9756 305.049 74.9428C307.431 73.91 309.236 72.0346 310.449 69.3303C311.662 66.6259 312.268 62.7529 312.268 57.7383C312.268 52.7238 311.662 48.7556 310.449 46.0784C309.236 43.4149 307.46 41.5938 305.108 40.6426C302.771 39.6913 299.901 39.2021 296.528 39.2021C293.156 39.2021 290.256 39.7049 287.874 40.6969C285.493 41.689 283.688 43.51 282.475 46.1328C281.262 48.7692 280.655 52.6286 280.655 57.7247C280.655 62.8208 281.262 66.6259 282.475 69.3846C283.688 72.1297 285.493 74.0051 287.874 74.9972C290.256 75.9892 293.096 76.492 296.395 76.492Z" fill="white"/>
  <path d="M376.411 89.7559C363.393 89.7559 354.029 88.0029 348.304 84.4967C342.579 80.9906 339.724 75.4596 339.724 67.8766H360.154C360.065 71.4643 361.174 73.992 363.467 75.4596C365.76 76.9409 369.74 77.6747 375.376 77.6747C380.672 77.6747 384.296 77.104 386.234 75.9489C388.187 74.7937 389.163 73.1358 389.163 70.9886C389.163 69.154 388.423 67.9038 386.944 67.2243C385.465 66.5448 383.349 66.0148 380.568 65.6072L364.177 63.46C356.81 62.5087 351.278 60.579 347.594 57.6572C343.911 54.749 342.062 50.5498 342.062 45.046C342.062 38.4279 344.858 33.3861 350.449 29.9208C356.041 26.4554 364.266 24.716 375.109 24.716C382.565 24.716 388.793 25.4498 393.778 26.9311C398.764 28.4123 402.566 30.7226 405.169 33.8618C407.773 37.0146 409.075 41.0915 409.075 46.1196H388.645C388.734 42.9397 387.802 40.643 385.849 39.2433C383.897 37.8571 380.627 37.1505 376.027 37.1505C371.87 37.1505 368.852 37.6669 366.988 38.6997C365.124 39.7325 364.192 41.2545 364.192 43.2386C364.192 44.8286 364.799 46.0109 366.012 46.7583C367.225 47.5194 369.089 48.0494 371.604 48.3755L390.598 50.7673C397.358 51.6506 402.506 53.458 406.012 56.2031C409.518 58.9482 411.279 63.0795 411.279 68.5697C411.279 73.0271 409.992 76.8322 407.447 79.985C404.888 83.1378 401.027 85.5431 395.864 87.2147C390.701 88.8862 384.222 89.7288 376.411 89.7288V89.7559Z" fill="white"/>
</svg>