<svg xmlns="http://www.w3.org/2000/svg" width="129" height="29" viewBox="0 0 129 29" fill="none">
  <path d="M8.54922 10.6568C8.82645 10.9536 9.15408 11.1832 9.53212 11.3428C9.91015 11.5025 10.3218 11.5865 10.7698 11.5865C11.2179 11.5865 11.6323 11.5053 12.0076 11.3428C12.3856 11.1804 12.7132 10.9508 12.9905 10.6568C13.2677 10.3599 13.4833 10.0155 13.6373 9.62068C13.7885 9.22584 13.8669 8.7946 13.8669 8.32695C13.8669 7.85931 13.7913 7.42807 13.6373 7.03323C13.4833 6.63839 13.2705 6.29116 12.9905 5.99713C12.7104 5.7003 12.38 5.47068 11.9936 5.31106C11.6071 5.14865 11.1899 5.06744 10.7418 5.06744C10.2938 5.06744 9.90735 5.14865 9.52932 5.31106C9.15128 5.47348 8.82365 5.7031 8.54642 5.99713C8.2664 6.29396 8.04797 6.63839 7.88556 7.03323C7.72314 7.42807 7.64193 7.85931 7.64193 8.32695C7.64193 8.7946 7.72314 9.22584 7.88556 9.62068C8.04797 10.0155 8.2664 10.3627 8.54642 10.6568H8.54922ZM10.5822 7.43647H10.9603C11.6603 7.43647 12.0104 7.73329 12.0104 8.32415C12.0104 8.91501 11.6603 9.21184 10.9603 9.21184H10.5822C9.88215 9.21184 9.53212 8.91501 9.53212 8.32415C9.53212 7.73329 9.88215 7.43647 10.5822 7.43647Z" fill="#0D120B"/>
  <path d="M21.8953 15.8989C21.8953 15.4508 21.8673 14.93 21.8141 14.3363C21.7609 13.7427 21.6881 13.205 21.5985 12.7206L21.1952 10.2143L18.2606 10.6988L18.7198 13.205C18.8458 13.8883 18.9298 14.4399 18.9746 14.8628C19.0194 15.2856 19.0418 15.6301 19.0418 15.8989C19.0418 16.2041 18.9298 16.4617 18.7058 16.6662C18.4818 16.8734 18.1233 17.0442 17.6277 17.1786C17.1348 17.313 16.4824 17.4082 15.6759 17.4614C14.8694 17.5146 13.8697 17.5426 12.6852 17.5426H8.91326C7.74555 17.5426 6.76825 17.4922 5.97858 17.3942C5.1889 17.2962 4.55044 17.1394 4.06599 16.9238C3.58154 16.7082 3.23151 16.4253 3.01589 16.0753C2.80027 15.7253 2.69386 15.2912 2.69386 14.7676C2.69386 14.3195 2.77787 13.8127 2.94868 13.247C3.1195 12.6814 3.35752 12.0933 3.66275 11.4829L1.0781 10.7296C0.736471 11.5753 0.473246 12.4265 0.282827 13.289C0.0924089 14.1515 0 14.9412 0 15.6581C0 16.8258 0.184818 17.8031 0.551653 18.5955C0.918488 19.3852 1.51775 20.0265 2.34383 20.5221C3.1699 21.015 4.25081 21.3706 5.58934 21.5862C6.92787 21.8018 8.57442 21.9083 10.5318 21.9083C12.8112 21.9083 14.6846 21.8186 16.1492 21.6394C17.6137 21.4602 18.7702 21.1466 19.6243 20.6957C20.4756 20.2477 21.0692 19.6372 21.4025 18.8644C21.7357 18.0915 21.9009 17.1058 21.9009 15.9017L21.8953 15.8989Z" fill="#0D120B"/>
  <path d="M11.0415 23.7396H10.5038C10.0362 23.7396 9.65533 23.8824 9.3585 24.1709C9.06167 24.4593 8.91326 24.9157 8.91326 25.5458C8.91326 26.1759 9.06167 26.6323 9.3585 26.9207C9.65533 27.2092 10.0362 27.352 10.5038 27.352H11.0415C11.5091 27.352 11.8899 27.2092 12.1868 26.9207C12.4836 26.6323 12.632 26.1759 12.632 25.5458C12.632 24.9157 12.4836 24.4593 12.1868 24.1709C11.8899 23.8824 11.5091 23.7396 11.0415 23.7396Z" fill="#0D120B"/>
  <path d="M30.5705 7.49247L29.7893 5.7395L23.1078 8.8394L23.8891 10.5616L30.5705 7.49247Z" fill="#0D120B"/>
  <path d="M37.0084 7.33006C37.5656 7.33006 37.9829 7.13684 38.2601 6.7504C38.5373 6.36396 38.7221 5.7591 38.8117 4.93303H38.9461C39.0358 5.36427 39.2346 5.7003 39.5398 5.94392C39.845 6.18755 40.2315 6.30796 40.6991 6.30796C41.472 6.30796 42.074 6.04753 42.5025 5.52668C42.9337 5.00583 43.1494 4.27776 43.1494 3.34527C43.1494 3.00364 43.1129 2.6228 43.0429 2.19996C42.9701 1.77712 42.8637 1.35988 42.7209 0.948242L40.8895 1.46069C41.0323 1.81913 41.1416 2.16076 41.2116 2.48559C41.2844 2.80762 41.318 3.09605 41.318 3.34807C41.318 3.77931 41.1108 3.99494 40.6991 3.99494C40.3211 3.99494 40.1335 3.77931 40.1335 3.34807V2.16356H38.3021V4.07614C38.3021 4.7062 38.0865 5.01983 37.6552 5.01983C37.3332 5.01983 37.1708 4.84062 37.1708 4.48218V2.97284H35.3394V5.04784C35.3394 5.78431 35.4878 6.34996 35.7846 6.7448C36.0815 7.13964 36.4903 7.33846 37.0112 7.33846L37.0084 7.33006Z" fill="#0D120B"/>
  <path d="M41.1556 23.7648H40.6179C40.1503 23.7648 39.7694 23.9076 39.4726 24.1961C39.1758 24.4817 39.0274 24.941 39.0274 25.571C39.0274 26.2011 39.1758 26.6575 39.4726 26.9459C39.7694 27.2316 40.1503 27.3772 40.6179 27.3772H41.1556C41.6232 27.3772 42.004 27.2344 42.3009 26.9459C42.5977 26.6575 42.7461 26.2011 42.7461 25.571C42.7461 24.941 42.5977 24.4845 42.3009 24.1961C42.004 23.9076 41.6232 23.7648 41.1556 23.7648Z" fill="#0D120B"/>
  <path d="M46.4369 11.9953C45.6108 11.8889 44.8379 11.7349 44.121 11.5361L38.9237 10.1891C38.4925 10.0827 38.1341 9.99031 37.8456 9.92031C37.5572 9.8475 37.3108 9.79429 37.1036 9.75789C36.8964 9.72149 36.7171 9.69628 36.5659 9.67668C36.4119 9.65988 36.2663 9.64868 36.1207 9.64868C34.9894 9.64868 34.1493 9.94551 33.6032 10.5364C33.0544 11.13 32.7828 12.0625 32.7828 13.3366V15.4116H35.8799V13.3926L39.9486 14.3895L44.2583 15.3052V15.4396L43.2614 15.9241C42.4885 16.3021 41.7632 16.5989 41.08 16.8118C40.3967 17.0274 39.6966 17.1898 38.9798 17.2962C38.2601 17.4026 37.5012 17.4698 36.7031 17.4978C35.9051 17.5258 35.0006 17.537 33.9953 17.537H29.6577C29.6212 17.215 29.582 16.8734 29.5372 16.5121C29.4924 16.1537 29.4336 15.7757 29.3636 15.3808L28.9604 12.8746L26.0229 13.3338L26.5886 16.9154C26.6782 17.4362 26.751 17.9263 26.8042 18.3827C26.8574 18.8392 26.8854 19.276 26.8854 19.6904C26.9022 21.2362 26.5298 22.3395 25.7681 23.0032C25.0036 23.6668 23.8051 24.0001 22.1725 24.0001H21.0944V28.0408H22.1977C24.3343 28.0408 26.0369 27.4612 27.3026 26.3047C28.5683 25.1482 29.3552 23.5716 29.6605 21.5778H33.9981C34.8606 21.5778 35.6866 21.5386 36.4763 21.4574C37.266 21.3762 38.0837 21.2054 38.9265 20.945C39.7694 20.6845 40.6627 20.3177 41.6064 19.8417C42.5501 19.3656 43.6142 18.7244 44.7987 17.9151L47.3302 16.1901H49.4304V12.1493H48.8927C48.0834 12.1493 47.2686 12.0961 46.4425 11.9869L46.4369 11.9953Z" fill="#0D120B"/>
  <path d="M87.7576 7.87331H88.2953C88.7629 7.87331 89.1438 7.73049 89.4406 7.44207C89.7374 7.15364 89.8858 6.6972 89.8858 6.06713C89.8858 5.43707 89.7374 4.98063 89.4406 4.6922C89.1438 4.40657 88.7629 4.26096 88.2953 4.26096H87.7576C87.29 4.26096 86.9092 4.40377 86.6123 4.6922C86.3155 4.98063 86.1671 5.43707 86.1671 6.06713C86.1671 6.6972 86.3155 7.15364 86.6123 7.44207C86.9092 7.73049 87.29 7.87331 87.7576 7.87331Z" fill="#0D120B"/>
  <path d="M88.7405 8.62658C88.4437 8.91501 88.2953 9.37145 88.2953 10.0015C88.2953 10.6316 88.4437 11.088 88.7405 11.3764C89.0374 11.6649 89.4182 11.8077 89.8858 11.8077H90.4235C90.8911 11.8077 91.272 11.6649 91.5688 11.3764C91.8656 11.0908 92.0141 10.6316 92.0141 10.0015C92.0141 9.37145 91.8656 8.91501 91.5688 8.62658C91.272 8.33815 90.8911 8.19534 90.4235 8.19534H89.8858C89.4182 8.19534 89.0374 8.33815 88.7405 8.62658Z" fill="#0D120B"/>
  <path d="M85.6294 11.8049H86.1671C86.6347 11.8049 87.0156 11.6621 87.3124 11.3736C87.6092 11.088 87.7576 10.6288 87.7576 9.99871C87.7576 9.36865 87.6092 8.91221 87.3124 8.62378C87.0156 8.33535 86.6347 8.19254 86.1671 8.19254H85.6294C85.1618 8.19254 84.781 8.33535 84.4841 8.62378C84.1873 8.91221 84.0389 9.36865 84.0389 9.99871C84.0389 10.6288 84.1873 11.0852 84.4841 11.3736C84.781 11.6621 85.1618 11.8049 85.6294 11.8049Z" fill="#0D120B"/>
  <path d="M95.1112 13.205L94.8955 11.8301L91.958 12.3145L92.2017 13.6895C92.2913 14.2467 92.3641 14.7172 92.4173 15.1036C92.4705 15.49 92.4985 15.8093 92.4985 16.0585C92.4985 16.669 92.3809 17.1142 92.1485 17.3914C91.916 17.6714 91.6108 17.8087 91.2328 17.8087H90.964C90.5159 17.8087 90.1603 17.6378 89.8998 17.2962C89.6394 16.9546 89.5106 16.4085 89.5106 15.6525V13.9555H86.5479V15.6525C86.5479 16.4981 86.3771 17.0834 86.0355 17.4166C85.6938 17.7499 85.1366 17.9151 84.3665 17.9151C83.8989 17.9151 83.4424 17.8479 82.9916 17.7135C82.5435 17.579 82.1039 17.4138 81.6727 17.215L82.6163 15.2492L79.9505 13.9555L78.9004 16.1369C78.6484 16.6578 78.3123 17.0218 77.8895 17.229C77.4667 17.4362 76.8254 17.5398 75.9629 17.5398H72.9442V1.65111H69.7127V18.8084C69.7127 19.7072 69.6455 20.4661 69.5111 21.085C69.3767 21.7038 69.1611 22.2079 68.8642 22.5943C68.5674 22.9808 68.1782 23.258 67.6937 23.4288C67.2093 23.5996 66.6156 23.6836 65.9155 23.6836H63.7593C62.5748 23.6836 61.6451 23.3728 60.9703 22.7539C60.2982 22.1351 59.9594 21.2586 59.9594 20.1273C59.9594 19.5532 60.063 18.87 60.2702 18.0803C60.4774 17.2906 60.7603 16.5093 61.1187 15.7365L58.534 14.9832C58.1392 15.9353 57.8284 16.9182 57.6043 17.9319C57.3803 18.9456 57.2683 19.8585 57.2683 20.6649C57.2683 23.0172 57.9068 24.8345 59.1809 26.1199C60.455 27.4024 62.3424 28.0464 64.8374 28.0464C67.1897 28.0464 69.0042 27.52 70.2784 26.4699C71.5525 25.4198 72.3702 23.79 72.7286 21.5806H75.1256C76.2037 21.5806 77.097 21.4994 77.8055 21.337C78.5139 21.1746 79.1468 20.8246 79.7041 20.2869L80.2697 20.6089C81.0958 21.0934 81.7651 21.4294 82.2775 21.6198C82.79 21.8075 83.3052 21.9027 83.8261 21.9027C84.6353 21.9027 85.285 21.603 85.7778 21.001C86.2707 20.3989 86.5899 19.4524 86.7355 18.1587H86.898C87.1304 19.4328 87.5728 20.3765 88.2169 20.987C88.8609 21.5974 89.8242 21.9027 91.0984 21.9027C92.5517 21.9027 93.627 21.4322 94.3187 20.4885C95.0103 19.5448 95.3548 18.0691 95.3548 16.0585C95.3548 15.5909 95.338 15.1288 95.3016 14.6724C95.2652 14.2131 95.2036 13.7259 95.114 13.205H95.1112Z" fill="#0D120B"/>
  <path d="M128.941 14.6752C128.905 14.2159 128.843 13.7287 128.754 13.2078L128.538 11.8329L125.6 12.3173L125.844 13.6923C125.934 14.2495 126.007 14.72 126.06 15.1064C126.113 15.4928 126.141 15.8121 126.141 16.0613C126.141 16.6718 126.023 17.117 125.791 17.3942C125.558 17.6743 125.253 17.8115 124.875 17.8115H124.606C124.158 17.8115 123.803 17.6406 123.542 17.299C123.282 16.9574 123.153 16.4113 123.153 15.6553V13.9583H120.19V15.6553C120.19 16.5009 120.02 17.0862 119.678 17.4194C119.336 17.7527 118.779 17.9179 118.009 17.9179C117.541 17.9179 117.085 17.8507 116.634 17.7163C116.186 17.5818 115.746 17.4166 115.315 17.2178L116.259 15.252L113.593 13.9583L112.543 16.1397C112.291 16.6606 111.955 17.0246 111.532 17.2318C111.109 17.439 110.468 17.5426 109.605 17.5426H108.205C108.116 15.2268 107.595 13.4206 106.643 12.1297C105.691 10.836 104.397 10.1891 102.764 10.1891C101.975 10.1891 101.244 10.3543 100.569 10.6876C99.894 11.0208 99.3116 11.4773 98.8187 12.0625C98.3259 12.645 97.9394 13.3366 97.6594 14.1375C97.3794 14.9356 97.2421 15.8037 97.2421 16.7362C97.2421 18.2623 97.651 19.4524 98.4687 20.3065C99.2863 21.1606 100.42 21.5862 101.877 21.5862H105.002C104.57 22.3395 103.84 22.9332 102.806 23.3644C101.773 23.7956 100.404 24.0113 98.6983 24.0113H96.9733V28.052H98.9671C101.429 28.052 103.397 27.492 104.878 26.3691C106.36 25.2462 107.351 23.6528 107.855 21.589H108.771C109.849 21.589 110.742 21.5078 111.451 21.3454C112.159 21.183 112.792 20.833 113.349 20.2953L113.915 20.6173C114.741 21.1018 115.41 21.4378 115.923 21.6282C116.435 21.8158 116.95 21.9111 117.471 21.9111C118.281 21.9111 118.93 21.6114 119.423 21.0094C119.916 20.4073 120.235 19.4608 120.381 18.1671H120.543C120.776 19.4412 121.218 20.3849 121.862 20.9954C122.506 21.6058 123.469 21.9111 124.744 21.9111C126.197 21.9111 127.272 21.4406 127.964 20.4969C128.656 19.5532 129 18.0775 129 16.0669C129 15.5993 128.983 15.1372 128.947 14.6808L128.941 14.6752ZM102.143 17.5426C101.459 17.5426 100.922 17.439 100.527 17.2318C100.132 17.0246 99.9332 16.6802 99.9332 16.1957C99.9332 15.6217 100.171 15.1512 100.647 14.7816C101.123 14.4147 101.711 14.2299 102.411 14.2299C103.31 14.2299 104.05 14.5267 104.635 15.1176C105.217 15.7113 105.511 16.4925 105.511 17.4614V17.5426H102.143Z" fill="#0D120B"/>
</svg>