<svg
            xmlns="http://www.w3.org/2000/svg"
            width="396"
            height="89"
            viewBox="0 0 396 89"
            fill="none"
          >
            <path
              d="M44.7492 88.8087C34.4236 88.8087 25.962 87.8574 19.379 85.9413C12.7813 84.0252 7.92912 80.9675 4.80777 76.7411C1.68642 72.5147 0.0739657 66.9838 0 60.1346H24.8525C24.9412 65.3938 26.5241 69.1173 29.6011 71.3053C32.678 73.4932 37.7817 74.594 44.8824 74.594C51.3914 74.594 56.1399 73.8194 59.1282 72.2701C62.1164 70.7209 63.6105 68.1525 63.6105 64.5648C63.6105 62.01 62.856 59.9987 61.3323 58.531C59.8087 57.0633 56.9684 56.0441 52.8115 55.4869L29.9117 52.4972C20.7991 51.2198 14.0091 48.6378 9.55637 44.724C5.08884 40.8237 2.85508 35.0889 2.85508 27.5059C2.85508 18.6591 6.30188 11.973 13.1955 7.42043C20.0891 2.8679 30.0892 0.598437 43.1812 0.598437C57.4122 0.598437 67.8857 2.7456 74.6018 7.05351C81.3179 11.3614 84.809 18.6047 85.0753 28.8105H60.2229C60.2229 25.3859 59.6755 22.6544 58.5956 20.6295C57.5157 18.5911 55.7553 17.1098 53.3293 16.145C50.9032 15.1937 47.5155 14.7045 43.1812 14.7045C37.8852 14.7045 33.9059 15.4383 31.2135 16.9196C28.5212 18.4009 27.175 20.8878 27.175 24.3939C27.175 26.7857 27.9294 28.661 29.4531 30.0064C30.962 31.3654 33.5508 32.2759 37.1899 32.7515L60.6075 36.0945C70.3266 37.4535 77.3237 40.1578 81.6137 44.2211C85.9037 48.2844 88.0487 54.1008 88.0487 61.6702C88.0487 70.6802 84.454 77.4478 77.2498 81.9867C70.0455 86.5257 59.2021 88.7951 44.7196 88.7951L44.7492 88.8087Z"
              fill="white"
            />
            <path
              d="M132.044 88.8087C126.141 88.8087 120.83 88.2652 116.111 87.1916C111.378 86.118 107.354 84.3106 104.011 81.7557C100.667 79.2009 98.1081 75.8442 96.3329 71.6586C94.5577 67.473 93.6702 62.3226 93.6702 56.18C93.6702 50.0375 94.6021 45.023 96.4661 40.8781C98.33 36.7333 100.993 33.431 104.469 30.9577C107.931 28.4844 112.014 26.7177 116.703 25.6442C121.392 24.5706 126.511 24.027 132.058 24.027C137.606 24.027 142.724 24.5706 147.414 25.6442C152.103 26.7177 156.171 28.498 159.648 30.9577C163.109 33.431 165.801 36.7197 167.71 40.8238C169.618 44.9278 170.58 50.0104 170.58 56.0577C170.58 64.1843 168.997 70.6394 165.831 75.423C162.665 80.2065 158.213 83.6311 152.488 85.6967C146.763 87.7624 139.958 88.8087 132.058 88.8087H132.044ZM132.044 75.5453C135.683 75.5453 138.656 74.9473 140.949 73.7514C143.242 72.5555 144.943 70.5443 146.023 67.7176C147.103 64.891 147.65 61.0044 147.65 56.0577C147.65 51.1111 147.103 47.4283 146.023 44.7648C144.943 42.1012 143.242 40.1986 140.949 39.0843C138.656 37.9699 135.727 37.4128 132.162 37.4128C128.597 37.4128 125.653 37.9699 123.316 39.0843C120.978 40.1986 119.262 42.1148 118.182 44.8191C117.102 47.5235 116.555 51.315 116.555 56.18C116.555 61.0451 117.102 64.9997 118.182 67.8399C119.262 70.6666 120.963 72.6643 123.256 73.8194C125.549 74.9745 128.478 75.5589 132.044 75.5589V75.5453Z"
              fill="white"
            />
            <path
              d="M215.181 88.8079C202.163 88.8079 192.503 86.2395 186.172 81.1026C179.84 75.9657 176.674 67.6625 176.674 56.1792C176.674 44.696 179.751 36.6781 185.905 31.6228C192.059 26.5674 201.172 24.0398 213.228 24.0398C220.595 24.0398 226.764 24.991 231.705 26.9072C236.646 28.8233 240.359 31.7451 242.829 35.6861C245.3 39.6271 246.409 44.6281 246.143 50.689H224.279C224.456 45.8239 223.687 42.3994 222.001 40.4153C220.314 38.4312 217.341 37.4256 213.095 37.4256C209.796 37.4256 207.178 38.0235 205.225 39.2194C203.273 40.4153 201.882 42.3722 201.068 45.0765C200.24 47.7808 199.826 51.4501 199.826 56.0705C199.826 63.0828 200.994 67.9614 203.332 70.7065C205.669 73.4517 209.841 74.8242 215.817 74.8242C221.024 74.8242 224.723 73.737 226.942 71.5355C229.16 69.3476 230.255 65.7327 230.255 60.7182H250.167C250.255 69.8776 247.326 76.8491 241.38 81.6326C235.433 86.4162 226.705 88.8079 215.166 88.8079H215.181Z"
              fill="white"
            />
            <path
              d="M268.525 19.2434C263.836 19.2434 260.433 18.4688 258.318 16.9059C256.188 15.3567 255.137 12.9378 255.137 9.67627C255.137 6.41475 256.202 3.9958 258.318 2.44658C260.448 0.897365 263.85 0.122756 268.525 0.122756C273.2 0.122756 276.573 0.897365 278.614 2.44658C280.655 3.9958 281.676 6.41475 281.676 9.67627C281.676 12.9378 280.655 15.3567 278.614 16.9059C276.573 18.4552 273.214 19.2434 268.525 19.2434ZM279.723 87.2595H257.09V25.5761H279.723V87.2595Z"
              fill="white"
            />
            <path
              d="M313.289 88.4418C310.168 88.4418 307.061 88.1157 303.984 87.4905C300.907 86.8518 298.111 85.819 295.596 84.3785C293.082 82.9516 291.04 81.0083 289.487 78.5758C287.919 76.1432 287.15 73.1807 287.15 69.6746C287.15 65.8559 287.978 62.7031 289.62 60.2298C291.262 57.7564 293.392 55.8267 295.996 54.427C298.599 53.0408 301.41 52.0352 304.458 51.4373C307.49 50.8393 310.449 50.5404 313.304 50.5404C318.763 50.5404 323.393 51.1655 327.165 52.3885C330.937 53.6252 333.778 55.3647 335.686 57.5934V45.5258C335.686 42.3458 334.813 40.0899 333.082 38.7717C331.351 37.4535 328.615 36.8012 324.887 36.8012C322.461 36.8012 320.508 37.1002 319.029 37.6982C317.549 38.2961 316.484 39.2338 315.848 40.5112C315.197 41.7886 314.872 43.5825 314.872 45.8927H293.141C293.141 41.0276 294.206 36.9915 296.336 33.7572C298.466 30.5364 301.958 28.1039 306.81 26.4731C311.662 24.8424 318.215 24.027 326.455 24.027C334.177 24.027 340.331 24.8831 344.932 26.5954C349.532 28.3077 352.846 30.7539 354.887 33.9474C356.929 37.141 357.95 40.9597 357.95 45.4171V68.8456C357.95 70.5171 358.275 71.7809 358.926 72.6099C359.577 73.4525 360.553 73.9281 361.855 74.0504C363.157 74.1727 364.725 74.0368 366.544 73.6291V87.2595C362.994 87.8982 359.414 88.0341 355.805 87.6808C352.21 87.3275 349.044 86.2811 346.307 84.5688C343.571 82.8565 341.736 80.2065 340.775 76.6189H340.39C337.786 80.6006 334.147 83.5767 329.458 85.5201C324.769 87.477 319.399 88.4554 313.319 88.4554L313.289 88.4418ZM322.905 76.4965C327.668 76.4965 331.085 75.9258 333.112 74.7571C335.153 73.602 336.174 71.713 336.174 69.0766C336.174 66.6033 335.109 64.7551 332.994 63.5184C330.863 62.2818 327.505 61.6703 322.905 61.6703C318.304 61.6703 314.916 62.2954 312.757 63.5184C310.582 64.7551 309.502 66.6033 309.502 69.0766C309.502 71.713 310.523 73.602 312.564 74.7571C314.606 75.9122 318.052 76.4965 322.905 76.4965Z"
              fill="white"
            />
            <path d="M372.225 87.259V0H395.258V87.259H372.225Z" fill="white" />
          </svg>